M48
;GenerationSoftware,Autodesk,EAGLE,9.6.2*%
;CreationDate,2022-07-07T13:59:01Z*%
FMAT,2
ICI,OFF
METRIC,TZ,000.000
T6C0.813
T5C1.000
T4C1.016
T3C1.200
T2C1.260
T1C4.500
%
G90
M71
T1
X-6350Y101810
X-6350Y109010
T2
X20320Y98750
X20320Y114610
T3
X146510Y52960
X105510Y68960
X105510Y52960
X146510Y68960
X104240Y113410
X104240Y97410
X145240Y97410
X145240Y113410
X104240Y91820
X104240Y75820
X145240Y75820
X145240Y91820
T4
X10160Y109220
X10160Y96520
X10160Y91440
X10160Y114300
X119380Y25400
X119380Y30480
X110490Y27940
X105410Y27940
X156210Y27940
X151130Y27940
T5
X58150Y111950
X77150Y111950
X87650Y111950
X58150Y86550
X77150Y86550
X87650Y86550
X84900Y32410
X84900Y42910
X84900Y61910
X84900Y72410
X72200Y32410
X21400Y42910
X72200Y61910
X72200Y72410
X59500Y32410
X59500Y42910
X59500Y61910
X59500Y72410
X46800Y32410
X46800Y42910
X72200Y42910
X46800Y61910
X46800Y72410
X34100Y32410
X34100Y42910
X34100Y61910
X34100Y72410
X21400Y32410
X21400Y61910
X21400Y72410
X8700Y32410
X8700Y42910
X8700Y61910
X8700Y72410
X47650Y86550
X-5270Y32410
X-5270Y42910
X-5270Y61910
X-5270Y72410
X47650Y99250
X58150Y99250
X77150Y99250
X87650Y99250
X47650Y111950
T6
X139700Y25400
X137160Y25400
X128270Y35560
X138430Y35560
M30