G04 EAGLE Gerber RS-274X export*
G75*
%MOMM*%
%FSLAX34Y34*%
%LPD*%
%IN*%
%IPPOS*%
%AMOC8*
5,1,8,0,0,1.08239X$1,22.5*%
G01*
%ADD10C,0.254000*%


D10*
X-127000Y152400D02*
X1650800Y152400D01*
X1650800Y1203200D01*
X-127000Y1203200D01*
X-127000Y152400D01*
X468281Y329100D02*
X468839Y329037D01*
X469386Y328912D01*
X469916Y328727D01*
X470422Y328483D01*
X470898Y328184D01*
X471337Y327834D01*
X471734Y327437D01*
X472084Y326998D01*
X472383Y326522D01*
X472627Y326016D01*
X472812Y325486D01*
X472937Y324939D01*
X473000Y324381D01*
X473000Y323819D01*
X472937Y323261D01*
X472812Y322714D01*
X472627Y322184D01*
X472383Y321678D01*
X472084Y321202D01*
X471734Y320763D01*
X471337Y320366D01*
X470898Y320016D01*
X470422Y319717D01*
X469916Y319473D01*
X469386Y319288D01*
X468839Y319163D01*
X468281Y319100D01*
X467719Y319100D01*
X467161Y319163D01*
X466614Y319288D01*
X466084Y319473D01*
X465578Y319717D01*
X465102Y320016D01*
X464663Y320366D01*
X464266Y320763D01*
X463916Y321202D01*
X463617Y321678D01*
X463373Y322184D01*
X463188Y322714D01*
X463063Y323261D01*
X463000Y323819D01*
X463000Y324381D01*
X463063Y324939D01*
X463188Y325486D01*
X463373Y326016D01*
X463617Y326522D01*
X463916Y326998D01*
X464266Y327437D01*
X464663Y327834D01*
X465102Y328184D01*
X465578Y328483D01*
X466084Y328727D01*
X466614Y328912D01*
X467161Y329037D01*
X467719Y329100D01*
X468281Y329100D01*
X468281Y434100D02*
X468839Y434037D01*
X469386Y433912D01*
X469916Y433727D01*
X470422Y433483D01*
X470898Y433184D01*
X471337Y432834D01*
X471734Y432437D01*
X472084Y431998D01*
X472383Y431522D01*
X472627Y431016D01*
X472812Y430486D01*
X472937Y429939D01*
X473000Y429381D01*
X473000Y428819D01*
X472937Y428261D01*
X472812Y427714D01*
X472627Y427184D01*
X472383Y426678D01*
X472084Y426202D01*
X471734Y425763D01*
X471337Y425366D01*
X470898Y425016D01*
X470422Y424717D01*
X469916Y424473D01*
X469386Y424288D01*
X468839Y424163D01*
X468281Y424100D01*
X467719Y424100D01*
X467161Y424163D01*
X466614Y424288D01*
X466084Y424473D01*
X465578Y424717D01*
X465102Y425016D01*
X464663Y425366D01*
X464266Y425763D01*
X463916Y426202D01*
X463617Y426678D01*
X463373Y427184D01*
X463188Y427714D01*
X463063Y428261D01*
X463000Y428819D01*
X463000Y429381D01*
X463063Y429939D01*
X463188Y430486D01*
X463373Y431016D01*
X463617Y431522D01*
X463916Y431998D01*
X464266Y432437D01*
X464663Y432834D01*
X465102Y433184D01*
X465578Y433483D01*
X466084Y433727D01*
X466614Y433912D01*
X467161Y434037D01*
X467719Y434100D01*
X468281Y434100D01*
X468281Y624100D02*
X468839Y624037D01*
X469386Y623912D01*
X469916Y623727D01*
X470422Y623483D01*
X470898Y623184D01*
X471337Y622834D01*
X471734Y622437D01*
X472084Y621998D01*
X472383Y621522D01*
X472627Y621016D01*
X472812Y620486D01*
X472937Y619939D01*
X473000Y619381D01*
X473000Y618819D01*
X472937Y618261D01*
X472812Y617714D01*
X472627Y617184D01*
X472383Y616678D01*
X472084Y616202D01*
X471734Y615763D01*
X471337Y615366D01*
X470898Y615016D01*
X470422Y614717D01*
X469916Y614473D01*
X469386Y614288D01*
X468839Y614163D01*
X468281Y614100D01*
X467719Y614100D01*
X467161Y614163D01*
X466614Y614288D01*
X466084Y614473D01*
X465578Y614717D01*
X465102Y615016D01*
X464663Y615366D01*
X464266Y615763D01*
X463916Y616202D01*
X463617Y616678D01*
X463373Y617184D01*
X463188Y617714D01*
X463063Y618261D01*
X463000Y618819D01*
X463000Y619381D01*
X463063Y619939D01*
X463188Y620486D01*
X463373Y621016D01*
X463617Y621522D01*
X463916Y621998D01*
X464266Y622437D01*
X464663Y622834D01*
X465102Y623184D01*
X465578Y623483D01*
X466084Y623727D01*
X466614Y623912D01*
X467161Y624037D01*
X467719Y624100D01*
X468281Y624100D01*
X468281Y729100D02*
X468839Y729037D01*
X469386Y728912D01*
X469916Y728727D01*
X470422Y728483D01*
X470898Y728184D01*
X471337Y727834D01*
X471734Y727437D01*
X472084Y726998D01*
X472383Y726522D01*
X472627Y726016D01*
X472812Y725486D01*
X472937Y724939D01*
X473000Y724381D01*
X473000Y723819D01*
X472937Y723261D01*
X472812Y722714D01*
X472627Y722184D01*
X472383Y721678D01*
X472084Y721202D01*
X471734Y720763D01*
X471337Y720366D01*
X470898Y720016D01*
X470422Y719717D01*
X469916Y719473D01*
X469386Y719288D01*
X468839Y719163D01*
X468281Y719100D01*
X467719Y719100D01*
X467161Y719163D01*
X466614Y719288D01*
X466084Y719473D01*
X465578Y719717D01*
X465102Y720016D01*
X464663Y720366D01*
X464266Y720763D01*
X463916Y721202D01*
X463617Y721678D01*
X463373Y722184D01*
X463188Y722714D01*
X463063Y723261D01*
X463000Y723819D01*
X463000Y724381D01*
X463063Y724939D01*
X463188Y725486D01*
X463373Y726016D01*
X463617Y726522D01*
X463916Y726998D01*
X464266Y727437D01*
X464663Y727834D01*
X465102Y728184D01*
X465578Y728483D01*
X466084Y728727D01*
X466614Y728912D01*
X467161Y729037D01*
X467719Y729100D01*
X468281Y729100D01*
X341281Y329100D02*
X341839Y329037D01*
X342386Y328912D01*
X342916Y328727D01*
X343422Y328483D01*
X343898Y328184D01*
X344337Y327834D01*
X344734Y327437D01*
X345084Y326998D01*
X345383Y326522D01*
X345627Y326016D01*
X345812Y325486D01*
X345937Y324939D01*
X346000Y324381D01*
X346000Y323819D01*
X345937Y323261D01*
X345812Y322714D01*
X345627Y322184D01*
X345383Y321678D01*
X345084Y321202D01*
X344734Y320763D01*
X344337Y320366D01*
X343898Y320016D01*
X343422Y319717D01*
X342916Y319473D01*
X342386Y319288D01*
X341839Y319163D01*
X341281Y319100D01*
X340719Y319100D01*
X340161Y319163D01*
X339614Y319288D01*
X339084Y319473D01*
X338578Y319717D01*
X338102Y320016D01*
X337663Y320366D01*
X337266Y320763D01*
X336916Y321202D01*
X336617Y321678D01*
X336373Y322184D01*
X336188Y322714D01*
X336063Y323261D01*
X336000Y323819D01*
X336000Y324381D01*
X336063Y324939D01*
X336188Y325486D01*
X336373Y326016D01*
X336617Y326522D01*
X336916Y326998D01*
X337266Y327437D01*
X337663Y327834D01*
X338102Y328184D01*
X338578Y328483D01*
X339084Y328727D01*
X339614Y328912D01*
X340161Y329037D01*
X340719Y329100D01*
X341281Y329100D01*
X341281Y434100D02*
X341839Y434037D01*
X342386Y433912D01*
X342916Y433727D01*
X343422Y433483D01*
X343898Y433184D01*
X344337Y432834D01*
X344734Y432437D01*
X345084Y431998D01*
X345383Y431522D01*
X345627Y431016D01*
X345812Y430486D01*
X345937Y429939D01*
X346000Y429381D01*
X346000Y428819D01*
X345937Y428261D01*
X345812Y427714D01*
X345627Y427184D01*
X345383Y426678D01*
X345084Y426202D01*
X344734Y425763D01*
X344337Y425366D01*
X343898Y425016D01*
X343422Y424717D01*
X342916Y424473D01*
X342386Y424288D01*
X341839Y424163D01*
X341281Y424100D01*
X340719Y424100D01*
X340161Y424163D01*
X339614Y424288D01*
X339084Y424473D01*
X338578Y424717D01*
X338102Y425016D01*
X337663Y425366D01*
X337266Y425763D01*
X336916Y426202D01*
X336617Y426678D01*
X336373Y427184D01*
X336188Y427714D01*
X336063Y428261D01*
X336000Y428819D01*
X336000Y429381D01*
X336063Y429939D01*
X336188Y430486D01*
X336373Y431016D01*
X336617Y431522D01*
X336916Y431998D01*
X337266Y432437D01*
X337663Y432834D01*
X338102Y433184D01*
X338578Y433483D01*
X339084Y433727D01*
X339614Y433912D01*
X340161Y434037D01*
X340719Y434100D01*
X341281Y434100D01*
X341281Y624100D02*
X341839Y624037D01*
X342386Y623912D01*
X342916Y623727D01*
X343422Y623483D01*
X343898Y623184D01*
X344337Y622834D01*
X344734Y622437D01*
X345084Y621998D01*
X345383Y621522D01*
X345627Y621016D01*
X345812Y620486D01*
X345937Y619939D01*
X346000Y619381D01*
X346000Y618819D01*
X345937Y618261D01*
X345812Y617714D01*
X345627Y617184D01*
X345383Y616678D01*
X345084Y616202D01*
X344734Y615763D01*
X344337Y615366D01*
X343898Y615016D01*
X343422Y614717D01*
X342916Y614473D01*
X342386Y614288D01*
X341839Y614163D01*
X341281Y614100D01*
X340719Y614100D01*
X340161Y614163D01*
X339614Y614288D01*
X339084Y614473D01*
X338578Y614717D01*
X338102Y615016D01*
X337663Y615366D01*
X337266Y615763D01*
X336916Y616202D01*
X336617Y616678D01*
X336373Y617184D01*
X336188Y617714D01*
X336063Y618261D01*
X336000Y618819D01*
X336000Y619381D01*
X336063Y619939D01*
X336188Y620486D01*
X336373Y621016D01*
X336617Y621522D01*
X336916Y621998D01*
X337266Y622437D01*
X337663Y622834D01*
X338102Y623184D01*
X338578Y623483D01*
X339084Y623727D01*
X339614Y623912D01*
X340161Y624037D01*
X340719Y624100D01*
X341281Y624100D01*
X341281Y729100D02*
X341839Y729037D01*
X342386Y728912D01*
X342916Y728727D01*
X343422Y728483D01*
X343898Y728184D01*
X344337Y727834D01*
X344734Y727437D01*
X345084Y726998D01*
X345383Y726522D01*
X345627Y726016D01*
X345812Y725486D01*
X345937Y724939D01*
X346000Y724381D01*
X346000Y723819D01*
X345937Y723261D01*
X345812Y722714D01*
X345627Y722184D01*
X345383Y721678D01*
X345084Y721202D01*
X344734Y720763D01*
X344337Y720366D01*
X343898Y720016D01*
X343422Y719717D01*
X342916Y719473D01*
X342386Y719288D01*
X341839Y719163D01*
X341281Y719100D01*
X340719Y719100D01*
X340161Y719163D01*
X339614Y719288D01*
X339084Y719473D01*
X338578Y719717D01*
X338102Y720016D01*
X337663Y720366D01*
X337266Y720763D01*
X336916Y721202D01*
X336617Y721678D01*
X336373Y722184D01*
X336188Y722714D01*
X336063Y723261D01*
X336000Y723819D01*
X336000Y724381D01*
X336063Y724939D01*
X336188Y725486D01*
X336373Y726016D01*
X336617Y726522D01*
X336916Y726998D01*
X337266Y727437D01*
X337663Y727834D01*
X338102Y728184D01*
X338578Y728483D01*
X339084Y728727D01*
X339614Y728912D01*
X340161Y729037D01*
X340719Y729100D01*
X341281Y729100D01*
X214281Y329100D02*
X214839Y329037D01*
X215386Y328912D01*
X215916Y328727D01*
X216422Y328483D01*
X216898Y328184D01*
X217337Y327834D01*
X217734Y327437D01*
X218084Y326998D01*
X218383Y326522D01*
X218627Y326016D01*
X218812Y325486D01*
X218937Y324939D01*
X219000Y324381D01*
X219000Y323819D01*
X218937Y323261D01*
X218812Y322714D01*
X218627Y322184D01*
X218383Y321678D01*
X218084Y321202D01*
X217734Y320763D01*
X217337Y320366D01*
X216898Y320016D01*
X216422Y319717D01*
X215916Y319473D01*
X215386Y319288D01*
X214839Y319163D01*
X214281Y319100D01*
X213719Y319100D01*
X213161Y319163D01*
X212614Y319288D01*
X212084Y319473D01*
X211578Y319717D01*
X211102Y320016D01*
X210663Y320366D01*
X210266Y320763D01*
X209916Y321202D01*
X209617Y321678D01*
X209373Y322184D01*
X209188Y322714D01*
X209063Y323261D01*
X209000Y323819D01*
X209000Y324381D01*
X209063Y324939D01*
X209188Y325486D01*
X209373Y326016D01*
X209617Y326522D01*
X209916Y326998D01*
X210266Y327437D01*
X210663Y327834D01*
X211102Y328184D01*
X211578Y328483D01*
X212084Y328727D01*
X212614Y328912D01*
X213161Y329037D01*
X213719Y329100D01*
X214281Y329100D01*
X214281Y434100D02*
X214839Y434037D01*
X215386Y433912D01*
X215916Y433727D01*
X216422Y433483D01*
X216898Y433184D01*
X217337Y432834D01*
X217734Y432437D01*
X218084Y431998D01*
X218383Y431522D01*
X218627Y431016D01*
X218812Y430486D01*
X218937Y429939D01*
X219000Y429381D01*
X219000Y428819D01*
X218937Y428261D01*
X218812Y427714D01*
X218627Y427184D01*
X218383Y426678D01*
X218084Y426202D01*
X217734Y425763D01*
X217337Y425366D01*
X216898Y425016D01*
X216422Y424717D01*
X215916Y424473D01*
X215386Y424288D01*
X214839Y424163D01*
X214281Y424100D01*
X213719Y424100D01*
X213161Y424163D01*
X212614Y424288D01*
X212084Y424473D01*
X211578Y424717D01*
X211102Y425016D01*
X210663Y425366D01*
X210266Y425763D01*
X209916Y426202D01*
X209617Y426678D01*
X209373Y427184D01*
X209188Y427714D01*
X209063Y428261D01*
X209000Y428819D01*
X209000Y429381D01*
X209063Y429939D01*
X209188Y430486D01*
X209373Y431016D01*
X209617Y431522D01*
X209916Y431998D01*
X210266Y432437D01*
X210663Y432834D01*
X211102Y433184D01*
X211578Y433483D01*
X212084Y433727D01*
X212614Y433912D01*
X213161Y434037D01*
X213719Y434100D01*
X214281Y434100D01*
X214281Y624100D02*
X214839Y624037D01*
X215386Y623912D01*
X215916Y623727D01*
X216422Y623483D01*
X216898Y623184D01*
X217337Y622834D01*
X217734Y622437D01*
X218084Y621998D01*
X218383Y621522D01*
X218627Y621016D01*
X218812Y620486D01*
X218937Y619939D01*
X219000Y619381D01*
X219000Y618819D01*
X218937Y618261D01*
X218812Y617714D01*
X218627Y617184D01*
X218383Y616678D01*
X218084Y616202D01*
X217734Y615763D01*
X217337Y615366D01*
X216898Y615016D01*
X216422Y614717D01*
X215916Y614473D01*
X215386Y614288D01*
X214839Y614163D01*
X214281Y614100D01*
X213719Y614100D01*
X213161Y614163D01*
X212614Y614288D01*
X212084Y614473D01*
X211578Y614717D01*
X211102Y615016D01*
X210663Y615366D01*
X210266Y615763D01*
X209916Y616202D01*
X209617Y616678D01*
X209373Y617184D01*
X209188Y617714D01*
X209063Y618261D01*
X209000Y618819D01*
X209000Y619381D01*
X209063Y619939D01*
X209188Y620486D01*
X209373Y621016D01*
X209617Y621522D01*
X209916Y621998D01*
X210266Y622437D01*
X210663Y622834D01*
X211102Y623184D01*
X211578Y623483D01*
X212084Y623727D01*
X212614Y623912D01*
X213161Y624037D01*
X213719Y624100D01*
X214281Y624100D01*
X214281Y729100D02*
X214839Y729037D01*
X215386Y728912D01*
X215916Y728727D01*
X216422Y728483D01*
X216898Y728184D01*
X217337Y727834D01*
X217734Y727437D01*
X218084Y726998D01*
X218383Y726522D01*
X218627Y726016D01*
X218812Y725486D01*
X218937Y724939D01*
X219000Y724381D01*
X219000Y723819D01*
X218937Y723261D01*
X218812Y722714D01*
X218627Y722184D01*
X218383Y721678D01*
X218084Y721202D01*
X217734Y720763D01*
X217337Y720366D01*
X216898Y720016D01*
X216422Y719717D01*
X215916Y719473D01*
X215386Y719288D01*
X214839Y719163D01*
X214281Y719100D01*
X213719Y719100D01*
X213161Y719163D01*
X212614Y719288D01*
X212084Y719473D01*
X211578Y719717D01*
X211102Y720016D01*
X210663Y720366D01*
X210266Y720763D01*
X209916Y721202D01*
X209617Y721678D01*
X209373Y722184D01*
X209188Y722714D01*
X209063Y723261D01*
X209000Y723819D01*
X209000Y724381D01*
X209063Y724939D01*
X209188Y725486D01*
X209373Y726016D01*
X209617Y726522D01*
X209916Y726998D01*
X210266Y727437D01*
X210663Y727834D01*
X211102Y728184D01*
X211578Y728483D01*
X212084Y728727D01*
X212614Y728912D01*
X213161Y729037D01*
X213719Y729100D01*
X214281Y729100D01*
X87281Y329100D02*
X87839Y329037D01*
X88386Y328912D01*
X88916Y328727D01*
X89422Y328483D01*
X89898Y328184D01*
X90337Y327834D01*
X90734Y327437D01*
X91084Y326998D01*
X91383Y326522D01*
X91627Y326016D01*
X91812Y325486D01*
X91937Y324939D01*
X92000Y324381D01*
X92000Y323819D01*
X91937Y323261D01*
X91812Y322714D01*
X91627Y322184D01*
X91383Y321678D01*
X91084Y321202D01*
X90734Y320763D01*
X90337Y320366D01*
X89898Y320016D01*
X89422Y319717D01*
X88916Y319473D01*
X88386Y319288D01*
X87839Y319163D01*
X87281Y319100D01*
X86719Y319100D01*
X86161Y319163D01*
X85614Y319288D01*
X85084Y319473D01*
X84578Y319717D01*
X84102Y320016D01*
X83663Y320366D01*
X83266Y320763D01*
X82916Y321202D01*
X82617Y321678D01*
X82373Y322184D01*
X82188Y322714D01*
X82063Y323261D01*
X82000Y323819D01*
X82000Y324381D01*
X82063Y324939D01*
X82188Y325486D01*
X82373Y326016D01*
X82617Y326522D01*
X82916Y326998D01*
X83266Y327437D01*
X83663Y327834D01*
X84102Y328184D01*
X84578Y328483D01*
X85084Y328727D01*
X85614Y328912D01*
X86161Y329037D01*
X86719Y329100D01*
X87281Y329100D01*
X87281Y434100D02*
X87839Y434037D01*
X88386Y433912D01*
X88916Y433727D01*
X89422Y433483D01*
X89898Y433184D01*
X90337Y432834D01*
X90734Y432437D01*
X91084Y431998D01*
X91383Y431522D01*
X91627Y431016D01*
X91812Y430486D01*
X91937Y429939D01*
X92000Y429381D01*
X92000Y428819D01*
X91937Y428261D01*
X91812Y427714D01*
X91627Y427184D01*
X91383Y426678D01*
X91084Y426202D01*
X90734Y425763D01*
X90337Y425366D01*
X89898Y425016D01*
X89422Y424717D01*
X88916Y424473D01*
X88386Y424288D01*
X87839Y424163D01*
X87281Y424100D01*
X86719Y424100D01*
X86161Y424163D01*
X85614Y424288D01*
X85084Y424473D01*
X84578Y424717D01*
X84102Y425016D01*
X83663Y425366D01*
X83266Y425763D01*
X82916Y426202D01*
X82617Y426678D01*
X82373Y427184D01*
X82188Y427714D01*
X82063Y428261D01*
X82000Y428819D01*
X82000Y429381D01*
X82063Y429939D01*
X82188Y430486D01*
X82373Y431016D01*
X82617Y431522D01*
X82916Y431998D01*
X83266Y432437D01*
X83663Y432834D01*
X84102Y433184D01*
X84578Y433483D01*
X85084Y433727D01*
X85614Y433912D01*
X86161Y434037D01*
X86719Y434100D01*
X87281Y434100D01*
X87281Y624100D02*
X87839Y624037D01*
X88386Y623912D01*
X88916Y623727D01*
X89422Y623483D01*
X89898Y623184D01*
X90337Y622834D01*
X90734Y622437D01*
X91084Y621998D01*
X91383Y621522D01*
X91627Y621016D01*
X91812Y620486D01*
X91937Y619939D01*
X92000Y619381D01*
X92000Y618819D01*
X91937Y618261D01*
X91812Y617714D01*
X91627Y617184D01*
X91383Y616678D01*
X91084Y616202D01*
X90734Y615763D01*
X90337Y615366D01*
X89898Y615016D01*
X89422Y614717D01*
X88916Y614473D01*
X88386Y614288D01*
X87839Y614163D01*
X87281Y614100D01*
X86719Y614100D01*
X86161Y614163D01*
X85614Y614288D01*
X85084Y614473D01*
X84578Y614717D01*
X84102Y615016D01*
X83663Y615366D01*
X83266Y615763D01*
X82916Y616202D01*
X82617Y616678D01*
X82373Y617184D01*
X82188Y617714D01*
X82063Y618261D01*
X82000Y618819D01*
X82000Y619381D01*
X82063Y619939D01*
X82188Y620486D01*
X82373Y621016D01*
X82617Y621522D01*
X82916Y621998D01*
X83266Y622437D01*
X83663Y622834D01*
X84102Y623184D01*
X84578Y623483D01*
X85084Y623727D01*
X85614Y623912D01*
X86161Y624037D01*
X86719Y624100D01*
X87281Y624100D01*
X87281Y729100D02*
X87839Y729037D01*
X88386Y728912D01*
X88916Y728727D01*
X89422Y728483D01*
X89898Y728184D01*
X90337Y727834D01*
X90734Y727437D01*
X91084Y726998D01*
X91383Y726522D01*
X91627Y726016D01*
X91812Y725486D01*
X91937Y724939D01*
X92000Y724381D01*
X92000Y723819D01*
X91937Y723261D01*
X91812Y722714D01*
X91627Y722184D01*
X91383Y721678D01*
X91084Y721202D01*
X90734Y720763D01*
X90337Y720366D01*
X89898Y720016D01*
X89422Y719717D01*
X88916Y719473D01*
X88386Y719288D01*
X87839Y719163D01*
X87281Y719100D01*
X86719Y719100D01*
X86161Y719163D01*
X85614Y719288D01*
X85084Y719473D01*
X84578Y719717D01*
X84102Y720016D01*
X83663Y720366D01*
X83266Y720763D01*
X82916Y721202D01*
X82617Y721678D01*
X82373Y722184D01*
X82188Y722714D01*
X82063Y723261D01*
X82000Y723819D01*
X82000Y724381D01*
X82063Y724939D01*
X82188Y725486D01*
X82373Y726016D01*
X82617Y726522D01*
X82916Y726998D01*
X83266Y727437D01*
X83663Y727834D01*
X84102Y728184D01*
X84578Y728483D01*
X85084Y728727D01*
X85614Y728912D01*
X86161Y729037D01*
X86719Y729100D01*
X87281Y729100D01*
X-52419Y329100D02*
X-51861Y329037D01*
X-51314Y328912D01*
X-50784Y328727D01*
X-50278Y328483D01*
X-49802Y328184D01*
X-49363Y327834D01*
X-48966Y327437D01*
X-48616Y326998D01*
X-48317Y326522D01*
X-48073Y326016D01*
X-47888Y325486D01*
X-47763Y324939D01*
X-47700Y324381D01*
X-47700Y323819D01*
X-47763Y323261D01*
X-47888Y322714D01*
X-48073Y322184D01*
X-48317Y321678D01*
X-48616Y321202D01*
X-48966Y320763D01*
X-49363Y320366D01*
X-49802Y320016D01*
X-50278Y319717D01*
X-50784Y319473D01*
X-51314Y319288D01*
X-51861Y319163D01*
X-52419Y319100D01*
X-52981Y319100D01*
X-53539Y319163D01*
X-54086Y319288D01*
X-54616Y319473D01*
X-55122Y319717D01*
X-55598Y320016D01*
X-56037Y320366D01*
X-56434Y320763D01*
X-56784Y321202D01*
X-57083Y321678D01*
X-57327Y322184D01*
X-57512Y322714D01*
X-57637Y323261D01*
X-57700Y323819D01*
X-57700Y324381D01*
X-57637Y324939D01*
X-57512Y325486D01*
X-57327Y326016D01*
X-57083Y326522D01*
X-56784Y326998D01*
X-56434Y327437D01*
X-56037Y327834D01*
X-55598Y328184D01*
X-55122Y328483D01*
X-54616Y328727D01*
X-54086Y328912D01*
X-53539Y329037D01*
X-52981Y329100D01*
X-52419Y329100D01*
X-52419Y434100D02*
X-51861Y434037D01*
X-51314Y433912D01*
X-50784Y433727D01*
X-50278Y433483D01*
X-49802Y433184D01*
X-49363Y432834D01*
X-48966Y432437D01*
X-48616Y431998D01*
X-48317Y431522D01*
X-48073Y431016D01*
X-47888Y430486D01*
X-47763Y429939D01*
X-47700Y429381D01*
X-47700Y428819D01*
X-47763Y428261D01*
X-47888Y427714D01*
X-48073Y427184D01*
X-48317Y426678D01*
X-48616Y426202D01*
X-48966Y425763D01*
X-49363Y425366D01*
X-49802Y425016D01*
X-50278Y424717D01*
X-50784Y424473D01*
X-51314Y424288D01*
X-51861Y424163D01*
X-52419Y424100D01*
X-52981Y424100D01*
X-53539Y424163D01*
X-54086Y424288D01*
X-54616Y424473D01*
X-55122Y424717D01*
X-55598Y425016D01*
X-56037Y425366D01*
X-56434Y425763D01*
X-56784Y426202D01*
X-57083Y426678D01*
X-57327Y427184D01*
X-57512Y427714D01*
X-57637Y428261D01*
X-57700Y428819D01*
X-57700Y429381D01*
X-57637Y429939D01*
X-57512Y430486D01*
X-57327Y431016D01*
X-57083Y431522D01*
X-56784Y431998D01*
X-56434Y432437D01*
X-56037Y432834D01*
X-55598Y433184D01*
X-55122Y433483D01*
X-54616Y433727D01*
X-54086Y433912D01*
X-53539Y434037D01*
X-52981Y434100D01*
X-52419Y434100D01*
X-52419Y624100D02*
X-51861Y624037D01*
X-51314Y623912D01*
X-50784Y623727D01*
X-50278Y623483D01*
X-49802Y623184D01*
X-49363Y622834D01*
X-48966Y622437D01*
X-48616Y621998D01*
X-48317Y621522D01*
X-48073Y621016D01*
X-47888Y620486D01*
X-47763Y619939D01*
X-47700Y619381D01*
X-47700Y618819D01*
X-47763Y618261D01*
X-47888Y617714D01*
X-48073Y617184D01*
X-48317Y616678D01*
X-48616Y616202D01*
X-48966Y615763D01*
X-49363Y615366D01*
X-49802Y615016D01*
X-50278Y614717D01*
X-50784Y614473D01*
X-51314Y614288D01*
X-51861Y614163D01*
X-52419Y614100D01*
X-52981Y614100D01*
X-53539Y614163D01*
X-54086Y614288D01*
X-54616Y614473D01*
X-55122Y614717D01*
X-55598Y615016D01*
X-56037Y615366D01*
X-56434Y615763D01*
X-56784Y616202D01*
X-57083Y616678D01*
X-57327Y617184D01*
X-57512Y617714D01*
X-57637Y618261D01*
X-57700Y618819D01*
X-57700Y619381D01*
X-57637Y619939D01*
X-57512Y620486D01*
X-57327Y621016D01*
X-57083Y621522D01*
X-56784Y621998D01*
X-56434Y622437D01*
X-56037Y622834D01*
X-55598Y623184D01*
X-55122Y623483D01*
X-54616Y623727D01*
X-54086Y623912D01*
X-53539Y624037D01*
X-52981Y624100D01*
X-52419Y624100D01*
X-52419Y729100D02*
X-51861Y729037D01*
X-51314Y728912D01*
X-50784Y728727D01*
X-50278Y728483D01*
X-49802Y728184D01*
X-49363Y727834D01*
X-48966Y727437D01*
X-48616Y726998D01*
X-48317Y726522D01*
X-48073Y726016D01*
X-47888Y725486D01*
X-47763Y724939D01*
X-47700Y724381D01*
X-47700Y723819D01*
X-47763Y723261D01*
X-47888Y722714D01*
X-48073Y722184D01*
X-48317Y721678D01*
X-48616Y721202D01*
X-48966Y720763D01*
X-49363Y720366D01*
X-49802Y720016D01*
X-50278Y719717D01*
X-50784Y719473D01*
X-51314Y719288D01*
X-51861Y719163D01*
X-52419Y719100D01*
X-52981Y719100D01*
X-53539Y719163D01*
X-54086Y719288D01*
X-54616Y719473D01*
X-55122Y719717D01*
X-55598Y720016D01*
X-56037Y720366D01*
X-56434Y720763D01*
X-56784Y721202D01*
X-57083Y721678D01*
X-57327Y722184D01*
X-57512Y722714D01*
X-57637Y723261D01*
X-57700Y723819D01*
X-57700Y724381D01*
X-57637Y724939D01*
X-57512Y725486D01*
X-57327Y726016D01*
X-57083Y726522D01*
X-56784Y726998D01*
X-56434Y727437D01*
X-56037Y727834D01*
X-55598Y728184D01*
X-55122Y728483D01*
X-54616Y728727D01*
X-54086Y728912D01*
X-53539Y729037D01*
X-52981Y729100D01*
X-52419Y729100D01*
X481500Y992219D02*
X481437Y991661D01*
X481312Y991114D01*
X481127Y990584D01*
X480883Y990078D01*
X480584Y989602D01*
X480234Y989163D01*
X479837Y988766D01*
X479398Y988416D01*
X478922Y988117D01*
X478416Y987873D01*
X477886Y987688D01*
X477339Y987563D01*
X476781Y987500D01*
X476219Y987500D01*
X475661Y987563D01*
X475114Y987688D01*
X474584Y987873D01*
X474078Y988117D01*
X473602Y988416D01*
X473163Y988766D01*
X472766Y989163D01*
X472416Y989602D01*
X472117Y990078D01*
X471873Y990584D01*
X471688Y991114D01*
X471563Y991661D01*
X471500Y992219D01*
X471500Y992781D01*
X471563Y993339D01*
X471688Y993886D01*
X471873Y994416D01*
X472117Y994922D01*
X472416Y995398D01*
X472766Y995837D01*
X473163Y996234D01*
X473602Y996584D01*
X474078Y996883D01*
X474584Y997127D01*
X475114Y997312D01*
X475661Y997437D01*
X476219Y997500D01*
X476781Y997500D01*
X477339Y997437D01*
X477886Y997312D01*
X478416Y997127D01*
X478922Y996883D01*
X479398Y996584D01*
X479837Y996234D01*
X480234Y995837D01*
X480584Y995398D01*
X480883Y994922D01*
X481127Y994416D01*
X481312Y993886D01*
X481437Y993339D01*
X481500Y992781D01*
X481500Y992219D01*
X586500Y992219D02*
X586437Y991661D01*
X586312Y991114D01*
X586127Y990584D01*
X585883Y990078D01*
X585584Y989602D01*
X585234Y989163D01*
X584837Y988766D01*
X584398Y988416D01*
X583922Y988117D01*
X583416Y987873D01*
X582886Y987688D01*
X582339Y987563D01*
X581781Y987500D01*
X581219Y987500D01*
X580661Y987563D01*
X580114Y987688D01*
X579584Y987873D01*
X579078Y988117D01*
X578602Y988416D01*
X578163Y988766D01*
X577766Y989163D01*
X577416Y989602D01*
X577117Y990078D01*
X576873Y990584D01*
X576688Y991114D01*
X576563Y991661D01*
X576500Y992219D01*
X576500Y992781D01*
X576563Y993339D01*
X576688Y993886D01*
X576873Y994416D01*
X577117Y994922D01*
X577416Y995398D01*
X577766Y995837D01*
X578163Y996234D01*
X578602Y996584D01*
X579078Y996883D01*
X579584Y997127D01*
X580114Y997312D01*
X580661Y997437D01*
X581219Y997500D01*
X581781Y997500D01*
X582339Y997437D01*
X582886Y997312D01*
X583416Y997127D01*
X583922Y996883D01*
X584398Y996584D01*
X584837Y996234D01*
X585234Y995837D01*
X585584Y995398D01*
X585883Y994922D01*
X586127Y994416D01*
X586312Y993886D01*
X586437Y993339D01*
X586500Y992781D01*
X586500Y992219D01*
X776500Y992219D02*
X776437Y991661D01*
X776312Y991114D01*
X776127Y990584D01*
X775883Y990078D01*
X775584Y989602D01*
X775234Y989163D01*
X774837Y988766D01*
X774398Y988416D01*
X773922Y988117D01*
X773416Y987873D01*
X772886Y987688D01*
X772339Y987563D01*
X771781Y987500D01*
X771219Y987500D01*
X770661Y987563D01*
X770114Y987688D01*
X769584Y987873D01*
X769078Y988117D01*
X768602Y988416D01*
X768163Y988766D01*
X767766Y989163D01*
X767416Y989602D01*
X767117Y990078D01*
X766873Y990584D01*
X766688Y991114D01*
X766563Y991661D01*
X766500Y992219D01*
X766500Y992781D01*
X766563Y993339D01*
X766688Y993886D01*
X766873Y994416D01*
X767117Y994922D01*
X767416Y995398D01*
X767766Y995837D01*
X768163Y996234D01*
X768602Y996584D01*
X769078Y996883D01*
X769584Y997127D01*
X770114Y997312D01*
X770661Y997437D01*
X771219Y997500D01*
X771781Y997500D01*
X772339Y997437D01*
X772886Y997312D01*
X773416Y997127D01*
X773922Y996883D01*
X774398Y996584D01*
X774837Y996234D01*
X775234Y995837D01*
X775584Y995398D01*
X775883Y994922D01*
X776127Y994416D01*
X776312Y993886D01*
X776437Y993339D01*
X776500Y992781D01*
X776500Y992219D01*
X881500Y992219D02*
X881437Y991661D01*
X881312Y991114D01*
X881127Y990584D01*
X880883Y990078D01*
X880584Y989602D01*
X880234Y989163D01*
X879837Y988766D01*
X879398Y988416D01*
X878922Y988117D01*
X878416Y987873D01*
X877886Y987688D01*
X877339Y987563D01*
X876781Y987500D01*
X876219Y987500D01*
X875661Y987563D01*
X875114Y987688D01*
X874584Y987873D01*
X874078Y988117D01*
X873602Y988416D01*
X873163Y988766D01*
X872766Y989163D01*
X872416Y989602D01*
X872117Y990078D01*
X871873Y990584D01*
X871688Y991114D01*
X871563Y991661D01*
X871500Y992219D01*
X871500Y992781D01*
X871563Y993339D01*
X871688Y993886D01*
X871873Y994416D01*
X872117Y994922D01*
X872416Y995398D01*
X872766Y995837D01*
X873163Y996234D01*
X873602Y996584D01*
X874078Y996883D01*
X874584Y997127D01*
X875114Y997312D01*
X875661Y997437D01*
X876219Y997500D01*
X876781Y997500D01*
X877339Y997437D01*
X877886Y997312D01*
X878416Y997127D01*
X878922Y996883D01*
X879398Y996584D01*
X879837Y996234D01*
X880234Y995837D01*
X880584Y995398D01*
X880883Y994922D01*
X881127Y994416D01*
X881312Y993886D01*
X881437Y993339D01*
X881500Y992781D01*
X881500Y992219D01*
X481500Y1119219D02*
X481437Y1118661D01*
X481312Y1118114D01*
X481127Y1117584D01*
X480883Y1117078D01*
X480584Y1116602D01*
X480234Y1116163D01*
X479837Y1115766D01*
X479398Y1115416D01*
X478922Y1115117D01*
X478416Y1114873D01*
X477886Y1114688D01*
X477339Y1114563D01*
X476781Y1114500D01*
X476219Y1114500D01*
X475661Y1114563D01*
X475114Y1114688D01*
X474584Y1114873D01*
X474078Y1115117D01*
X473602Y1115416D01*
X473163Y1115766D01*
X472766Y1116163D01*
X472416Y1116602D01*
X472117Y1117078D01*
X471873Y1117584D01*
X471688Y1118114D01*
X471563Y1118661D01*
X471500Y1119219D01*
X471500Y1119781D01*
X471563Y1120339D01*
X471688Y1120886D01*
X471873Y1121416D01*
X472117Y1121922D01*
X472416Y1122398D01*
X472766Y1122837D01*
X473163Y1123234D01*
X473602Y1123584D01*
X474078Y1123883D01*
X474584Y1124127D01*
X475114Y1124312D01*
X475661Y1124437D01*
X476219Y1124500D01*
X476781Y1124500D01*
X477339Y1124437D01*
X477886Y1124312D01*
X478416Y1124127D01*
X478922Y1123883D01*
X479398Y1123584D01*
X479837Y1123234D01*
X480234Y1122837D01*
X480584Y1122398D01*
X480883Y1121922D01*
X481127Y1121416D01*
X481312Y1120886D01*
X481437Y1120339D01*
X481500Y1119781D01*
X481500Y1119219D01*
X586500Y1119219D02*
X586437Y1118661D01*
X586312Y1118114D01*
X586127Y1117584D01*
X585883Y1117078D01*
X585584Y1116602D01*
X585234Y1116163D01*
X584837Y1115766D01*
X584398Y1115416D01*
X583922Y1115117D01*
X583416Y1114873D01*
X582886Y1114688D01*
X582339Y1114563D01*
X581781Y1114500D01*
X581219Y1114500D01*
X580661Y1114563D01*
X580114Y1114688D01*
X579584Y1114873D01*
X579078Y1115117D01*
X578602Y1115416D01*
X578163Y1115766D01*
X577766Y1116163D01*
X577416Y1116602D01*
X577117Y1117078D01*
X576873Y1117584D01*
X576688Y1118114D01*
X576563Y1118661D01*
X576500Y1119219D01*
X576500Y1119781D01*
X576563Y1120339D01*
X576688Y1120886D01*
X576873Y1121416D01*
X577117Y1121922D01*
X577416Y1122398D01*
X577766Y1122837D01*
X578163Y1123234D01*
X578602Y1123584D01*
X579078Y1123883D01*
X579584Y1124127D01*
X580114Y1124312D01*
X580661Y1124437D01*
X581219Y1124500D01*
X581781Y1124500D01*
X582339Y1124437D01*
X582886Y1124312D01*
X583416Y1124127D01*
X583922Y1123883D01*
X584398Y1123584D01*
X584837Y1123234D01*
X585234Y1122837D01*
X585584Y1122398D01*
X585883Y1121922D01*
X586127Y1121416D01*
X586312Y1120886D01*
X586437Y1120339D01*
X586500Y1119781D01*
X586500Y1119219D01*
X776500Y1119219D02*
X776437Y1118661D01*
X776312Y1118114D01*
X776127Y1117584D01*
X775883Y1117078D01*
X775584Y1116602D01*
X775234Y1116163D01*
X774837Y1115766D01*
X774398Y1115416D01*
X773922Y1115117D01*
X773416Y1114873D01*
X772886Y1114688D01*
X772339Y1114563D01*
X771781Y1114500D01*
X771219Y1114500D01*
X770661Y1114563D01*
X770114Y1114688D01*
X769584Y1114873D01*
X769078Y1115117D01*
X768602Y1115416D01*
X768163Y1115766D01*
X767766Y1116163D01*
X767416Y1116602D01*
X767117Y1117078D01*
X766873Y1117584D01*
X766688Y1118114D01*
X766563Y1118661D01*
X766500Y1119219D01*
X766500Y1119781D01*
X766563Y1120339D01*
X766688Y1120886D01*
X766873Y1121416D01*
X767117Y1121922D01*
X767416Y1122398D01*
X767766Y1122837D01*
X768163Y1123234D01*
X768602Y1123584D01*
X769078Y1123883D01*
X769584Y1124127D01*
X770114Y1124312D01*
X770661Y1124437D01*
X771219Y1124500D01*
X771781Y1124500D01*
X772339Y1124437D01*
X772886Y1124312D01*
X773416Y1124127D01*
X773922Y1123883D01*
X774398Y1123584D01*
X774837Y1123234D01*
X775234Y1122837D01*
X775584Y1122398D01*
X775883Y1121922D01*
X776127Y1121416D01*
X776312Y1120886D01*
X776437Y1120339D01*
X776500Y1119781D01*
X776500Y1119219D01*
X881500Y1119219D02*
X881437Y1118661D01*
X881312Y1118114D01*
X881127Y1117584D01*
X880883Y1117078D01*
X880584Y1116602D01*
X880234Y1116163D01*
X879837Y1115766D01*
X879398Y1115416D01*
X878922Y1115117D01*
X878416Y1114873D01*
X877886Y1114688D01*
X877339Y1114563D01*
X876781Y1114500D01*
X876219Y1114500D01*
X875661Y1114563D01*
X875114Y1114688D01*
X874584Y1114873D01*
X874078Y1115117D01*
X873602Y1115416D01*
X873163Y1115766D01*
X872766Y1116163D01*
X872416Y1116602D01*
X872117Y1117078D01*
X871873Y1117584D01*
X871688Y1118114D01*
X871563Y1118661D01*
X871500Y1119219D01*
X871500Y1119781D01*
X871563Y1120339D01*
X871688Y1120886D01*
X871873Y1121416D01*
X872117Y1121922D01*
X872416Y1122398D01*
X872766Y1122837D01*
X873163Y1123234D01*
X873602Y1123584D01*
X874078Y1123883D01*
X874584Y1124127D01*
X875114Y1124312D01*
X875661Y1124437D01*
X876219Y1124500D01*
X876781Y1124500D01*
X877339Y1124437D01*
X877886Y1124312D01*
X878416Y1124127D01*
X878922Y1123883D01*
X879398Y1123584D01*
X879837Y1123234D01*
X880234Y1122837D01*
X880584Y1122398D01*
X880883Y1121922D01*
X881127Y1121416D01*
X881312Y1120886D01*
X881437Y1120339D01*
X881500Y1119781D01*
X881500Y1119219D01*
X481500Y865219D02*
X481437Y864661D01*
X481312Y864114D01*
X481127Y863584D01*
X480883Y863078D01*
X480584Y862602D01*
X480234Y862163D01*
X479837Y861766D01*
X479398Y861416D01*
X478922Y861117D01*
X478416Y860873D01*
X477886Y860688D01*
X477339Y860563D01*
X476781Y860500D01*
X476219Y860500D01*
X475661Y860563D01*
X475114Y860688D01*
X474584Y860873D01*
X474078Y861117D01*
X473602Y861416D01*
X473163Y861766D01*
X472766Y862163D01*
X472416Y862602D01*
X472117Y863078D01*
X471873Y863584D01*
X471688Y864114D01*
X471563Y864661D01*
X471500Y865219D01*
X471500Y865781D01*
X471563Y866339D01*
X471688Y866886D01*
X471873Y867416D01*
X472117Y867922D01*
X472416Y868398D01*
X472766Y868837D01*
X473163Y869234D01*
X473602Y869584D01*
X474078Y869883D01*
X474584Y870127D01*
X475114Y870312D01*
X475661Y870437D01*
X476219Y870500D01*
X476781Y870500D01*
X477339Y870437D01*
X477886Y870312D01*
X478416Y870127D01*
X478922Y869883D01*
X479398Y869584D01*
X479837Y869234D01*
X480234Y868837D01*
X480584Y868398D01*
X480883Y867922D01*
X481127Y867416D01*
X481312Y866886D01*
X481437Y866339D01*
X481500Y865781D01*
X481500Y865219D01*
X586500Y865219D02*
X586437Y864661D01*
X586312Y864114D01*
X586127Y863584D01*
X585883Y863078D01*
X585584Y862602D01*
X585234Y862163D01*
X584837Y861766D01*
X584398Y861416D01*
X583922Y861117D01*
X583416Y860873D01*
X582886Y860688D01*
X582339Y860563D01*
X581781Y860500D01*
X581219Y860500D01*
X580661Y860563D01*
X580114Y860688D01*
X579584Y860873D01*
X579078Y861117D01*
X578602Y861416D01*
X578163Y861766D01*
X577766Y862163D01*
X577416Y862602D01*
X577117Y863078D01*
X576873Y863584D01*
X576688Y864114D01*
X576563Y864661D01*
X576500Y865219D01*
X576500Y865781D01*
X576563Y866339D01*
X576688Y866886D01*
X576873Y867416D01*
X577117Y867922D01*
X577416Y868398D01*
X577766Y868837D01*
X578163Y869234D01*
X578602Y869584D01*
X579078Y869883D01*
X579584Y870127D01*
X580114Y870312D01*
X580661Y870437D01*
X581219Y870500D01*
X581781Y870500D01*
X582339Y870437D01*
X582886Y870312D01*
X583416Y870127D01*
X583922Y869883D01*
X584398Y869584D01*
X584837Y869234D01*
X585234Y868837D01*
X585584Y868398D01*
X585883Y867922D01*
X586127Y867416D01*
X586312Y866886D01*
X586437Y866339D01*
X586500Y865781D01*
X586500Y865219D01*
X776500Y865219D02*
X776437Y864661D01*
X776312Y864114D01*
X776127Y863584D01*
X775883Y863078D01*
X775584Y862602D01*
X775234Y862163D01*
X774837Y861766D01*
X774398Y861416D01*
X773922Y861117D01*
X773416Y860873D01*
X772886Y860688D01*
X772339Y860563D01*
X771781Y860500D01*
X771219Y860500D01*
X770661Y860563D01*
X770114Y860688D01*
X769584Y860873D01*
X769078Y861117D01*
X768602Y861416D01*
X768163Y861766D01*
X767766Y862163D01*
X767416Y862602D01*
X767117Y863078D01*
X766873Y863584D01*
X766688Y864114D01*
X766563Y864661D01*
X766500Y865219D01*
X766500Y865781D01*
X766563Y866339D01*
X766688Y866886D01*
X766873Y867416D01*
X767117Y867922D01*
X767416Y868398D01*
X767766Y868837D01*
X768163Y869234D01*
X768602Y869584D01*
X769078Y869883D01*
X769584Y870127D01*
X770114Y870312D01*
X770661Y870437D01*
X771219Y870500D01*
X771781Y870500D01*
X772339Y870437D01*
X772886Y870312D01*
X773416Y870127D01*
X773922Y869883D01*
X774398Y869584D01*
X774837Y869234D01*
X775234Y868837D01*
X775584Y868398D01*
X775883Y867922D01*
X776127Y867416D01*
X776312Y866886D01*
X776437Y866339D01*
X776500Y865781D01*
X776500Y865219D01*
X881500Y865219D02*
X881437Y864661D01*
X881312Y864114D01*
X881127Y863584D01*
X880883Y863078D01*
X880584Y862602D01*
X880234Y862163D01*
X879837Y861766D01*
X879398Y861416D01*
X878922Y861117D01*
X878416Y860873D01*
X877886Y860688D01*
X877339Y860563D01*
X876781Y860500D01*
X876219Y860500D01*
X875661Y860563D01*
X875114Y860688D01*
X874584Y860873D01*
X874078Y861117D01*
X873602Y861416D01*
X873163Y861766D01*
X872766Y862163D01*
X872416Y862602D01*
X872117Y863078D01*
X871873Y863584D01*
X871688Y864114D01*
X871563Y864661D01*
X871500Y865219D01*
X871500Y865781D01*
X871563Y866339D01*
X871688Y866886D01*
X871873Y867416D01*
X872117Y867922D01*
X872416Y868398D01*
X872766Y868837D01*
X873163Y869234D01*
X873602Y869584D01*
X874078Y869883D01*
X874584Y870127D01*
X875114Y870312D01*
X875661Y870437D01*
X876219Y870500D01*
X876781Y870500D01*
X877339Y870437D01*
X877886Y870312D01*
X878416Y870127D01*
X878922Y869883D01*
X879398Y869584D01*
X879837Y869234D01*
X880234Y868837D01*
X880584Y868398D01*
X880883Y867922D01*
X881127Y867416D01*
X881312Y866886D01*
X881437Y866339D01*
X881500Y865781D01*
X881500Y865219D01*
X849281Y329100D02*
X849839Y329037D01*
X850386Y328912D01*
X850916Y328727D01*
X851422Y328483D01*
X851898Y328184D01*
X852337Y327834D01*
X852734Y327437D01*
X853084Y326998D01*
X853383Y326522D01*
X853627Y326016D01*
X853812Y325486D01*
X853937Y324939D01*
X854000Y324381D01*
X854000Y323819D01*
X853937Y323261D01*
X853812Y322714D01*
X853627Y322184D01*
X853383Y321678D01*
X853084Y321202D01*
X852734Y320763D01*
X852337Y320366D01*
X851898Y320016D01*
X851422Y319717D01*
X850916Y319473D01*
X850386Y319288D01*
X849839Y319163D01*
X849281Y319100D01*
X848719Y319100D01*
X848161Y319163D01*
X847614Y319288D01*
X847084Y319473D01*
X846578Y319717D01*
X846102Y320016D01*
X845663Y320366D01*
X845266Y320763D01*
X844916Y321202D01*
X844617Y321678D01*
X844373Y322184D01*
X844188Y322714D01*
X844063Y323261D01*
X844000Y323819D01*
X844000Y324381D01*
X844063Y324939D01*
X844188Y325486D01*
X844373Y326016D01*
X844617Y326522D01*
X844916Y326998D01*
X845266Y327437D01*
X845663Y327834D01*
X846102Y328184D01*
X846578Y328483D01*
X847084Y328727D01*
X847614Y328912D01*
X848161Y329037D01*
X848719Y329100D01*
X849281Y329100D01*
X849281Y434100D02*
X849839Y434037D01*
X850386Y433912D01*
X850916Y433727D01*
X851422Y433483D01*
X851898Y433184D01*
X852337Y432834D01*
X852734Y432437D01*
X853084Y431998D01*
X853383Y431522D01*
X853627Y431016D01*
X853812Y430486D01*
X853937Y429939D01*
X854000Y429381D01*
X854000Y428819D01*
X853937Y428261D01*
X853812Y427714D01*
X853627Y427184D01*
X853383Y426678D01*
X853084Y426202D01*
X852734Y425763D01*
X852337Y425366D01*
X851898Y425016D01*
X851422Y424717D01*
X850916Y424473D01*
X850386Y424288D01*
X849839Y424163D01*
X849281Y424100D01*
X848719Y424100D01*
X848161Y424163D01*
X847614Y424288D01*
X847084Y424473D01*
X846578Y424717D01*
X846102Y425016D01*
X845663Y425366D01*
X845266Y425763D01*
X844916Y426202D01*
X844617Y426678D01*
X844373Y427184D01*
X844188Y427714D01*
X844063Y428261D01*
X844000Y428819D01*
X844000Y429381D01*
X844063Y429939D01*
X844188Y430486D01*
X844373Y431016D01*
X844617Y431522D01*
X844916Y431998D01*
X845266Y432437D01*
X845663Y432834D01*
X846102Y433184D01*
X846578Y433483D01*
X847084Y433727D01*
X847614Y433912D01*
X848161Y434037D01*
X848719Y434100D01*
X849281Y434100D01*
X849281Y624100D02*
X849839Y624037D01*
X850386Y623912D01*
X850916Y623727D01*
X851422Y623483D01*
X851898Y623184D01*
X852337Y622834D01*
X852734Y622437D01*
X853084Y621998D01*
X853383Y621522D01*
X853627Y621016D01*
X853812Y620486D01*
X853937Y619939D01*
X854000Y619381D01*
X854000Y618819D01*
X853937Y618261D01*
X853812Y617714D01*
X853627Y617184D01*
X853383Y616678D01*
X853084Y616202D01*
X852734Y615763D01*
X852337Y615366D01*
X851898Y615016D01*
X851422Y614717D01*
X850916Y614473D01*
X850386Y614288D01*
X849839Y614163D01*
X849281Y614100D01*
X848719Y614100D01*
X848161Y614163D01*
X847614Y614288D01*
X847084Y614473D01*
X846578Y614717D01*
X846102Y615016D01*
X845663Y615366D01*
X845266Y615763D01*
X844916Y616202D01*
X844617Y616678D01*
X844373Y617184D01*
X844188Y617714D01*
X844063Y618261D01*
X844000Y618819D01*
X844000Y619381D01*
X844063Y619939D01*
X844188Y620486D01*
X844373Y621016D01*
X844617Y621522D01*
X844916Y621998D01*
X845266Y622437D01*
X845663Y622834D01*
X846102Y623184D01*
X846578Y623483D01*
X847084Y623727D01*
X847614Y623912D01*
X848161Y624037D01*
X848719Y624100D01*
X849281Y624100D01*
X849281Y729100D02*
X849839Y729037D01*
X850386Y728912D01*
X850916Y728727D01*
X851422Y728483D01*
X851898Y728184D01*
X852337Y727834D01*
X852734Y727437D01*
X853084Y726998D01*
X853383Y726522D01*
X853627Y726016D01*
X853812Y725486D01*
X853937Y724939D01*
X854000Y724381D01*
X854000Y723819D01*
X853937Y723261D01*
X853812Y722714D01*
X853627Y722184D01*
X853383Y721678D01*
X853084Y721202D01*
X852734Y720763D01*
X852337Y720366D01*
X851898Y720016D01*
X851422Y719717D01*
X850916Y719473D01*
X850386Y719288D01*
X849839Y719163D01*
X849281Y719100D01*
X848719Y719100D01*
X848161Y719163D01*
X847614Y719288D01*
X847084Y719473D01*
X846578Y719717D01*
X846102Y720016D01*
X845663Y720366D01*
X845266Y720763D01*
X844916Y721202D01*
X844617Y721678D01*
X844373Y722184D01*
X844188Y722714D01*
X844063Y723261D01*
X844000Y723819D01*
X844000Y724381D01*
X844063Y724939D01*
X844188Y725486D01*
X844373Y726016D01*
X844617Y726522D01*
X844916Y726998D01*
X845266Y727437D01*
X845663Y727834D01*
X846102Y728184D01*
X846578Y728483D01*
X847084Y728727D01*
X847614Y728912D01*
X848161Y729037D01*
X848719Y729100D01*
X849281Y729100D01*
X722281Y329100D02*
X722839Y329037D01*
X723386Y328912D01*
X723916Y328727D01*
X724422Y328483D01*
X724898Y328184D01*
X725337Y327834D01*
X725734Y327437D01*
X726084Y326998D01*
X726383Y326522D01*
X726627Y326016D01*
X726812Y325486D01*
X726937Y324939D01*
X727000Y324381D01*
X727000Y323819D01*
X726937Y323261D01*
X726812Y322714D01*
X726627Y322184D01*
X726383Y321678D01*
X726084Y321202D01*
X725734Y320763D01*
X725337Y320366D01*
X724898Y320016D01*
X724422Y319717D01*
X723916Y319473D01*
X723386Y319288D01*
X722839Y319163D01*
X722281Y319100D01*
X721719Y319100D01*
X721161Y319163D01*
X720614Y319288D01*
X720084Y319473D01*
X719578Y319717D01*
X719102Y320016D01*
X718663Y320366D01*
X718266Y320763D01*
X717916Y321202D01*
X717617Y321678D01*
X717373Y322184D01*
X717188Y322714D01*
X717063Y323261D01*
X717000Y323819D01*
X717000Y324381D01*
X717063Y324939D01*
X717188Y325486D01*
X717373Y326016D01*
X717617Y326522D01*
X717916Y326998D01*
X718266Y327437D01*
X718663Y327834D01*
X719102Y328184D01*
X719578Y328483D01*
X720084Y328727D01*
X720614Y328912D01*
X721161Y329037D01*
X721719Y329100D01*
X722281Y329100D01*
X722281Y434100D02*
X722839Y434037D01*
X723386Y433912D01*
X723916Y433727D01*
X724422Y433483D01*
X724898Y433184D01*
X725337Y432834D01*
X725734Y432437D01*
X726084Y431998D01*
X726383Y431522D01*
X726627Y431016D01*
X726812Y430486D01*
X726937Y429939D01*
X727000Y429381D01*
X727000Y428819D01*
X726937Y428261D01*
X726812Y427714D01*
X726627Y427184D01*
X726383Y426678D01*
X726084Y426202D01*
X725734Y425763D01*
X725337Y425366D01*
X724898Y425016D01*
X724422Y424717D01*
X723916Y424473D01*
X723386Y424288D01*
X722839Y424163D01*
X722281Y424100D01*
X721719Y424100D01*
X721161Y424163D01*
X720614Y424288D01*
X720084Y424473D01*
X719578Y424717D01*
X719102Y425016D01*
X718663Y425366D01*
X718266Y425763D01*
X717916Y426202D01*
X717617Y426678D01*
X717373Y427184D01*
X717188Y427714D01*
X717063Y428261D01*
X717000Y428819D01*
X717000Y429381D01*
X717063Y429939D01*
X717188Y430486D01*
X717373Y431016D01*
X717617Y431522D01*
X717916Y431998D01*
X718266Y432437D01*
X718663Y432834D01*
X719102Y433184D01*
X719578Y433483D01*
X720084Y433727D01*
X720614Y433912D01*
X721161Y434037D01*
X721719Y434100D01*
X722281Y434100D01*
X722281Y624100D02*
X722839Y624037D01*
X723386Y623912D01*
X723916Y623727D01*
X724422Y623483D01*
X724898Y623184D01*
X725337Y622834D01*
X725734Y622437D01*
X726084Y621998D01*
X726383Y621522D01*
X726627Y621016D01*
X726812Y620486D01*
X726937Y619939D01*
X727000Y619381D01*
X727000Y618819D01*
X726937Y618261D01*
X726812Y617714D01*
X726627Y617184D01*
X726383Y616678D01*
X726084Y616202D01*
X725734Y615763D01*
X725337Y615366D01*
X724898Y615016D01*
X724422Y614717D01*
X723916Y614473D01*
X723386Y614288D01*
X722839Y614163D01*
X722281Y614100D01*
X721719Y614100D01*
X721161Y614163D01*
X720614Y614288D01*
X720084Y614473D01*
X719578Y614717D01*
X719102Y615016D01*
X718663Y615366D01*
X718266Y615763D01*
X717916Y616202D01*
X717617Y616678D01*
X717373Y617184D01*
X717188Y617714D01*
X717063Y618261D01*
X717000Y618819D01*
X717000Y619381D01*
X717063Y619939D01*
X717188Y620486D01*
X717373Y621016D01*
X717617Y621522D01*
X717916Y621998D01*
X718266Y622437D01*
X718663Y622834D01*
X719102Y623184D01*
X719578Y623483D01*
X720084Y623727D01*
X720614Y623912D01*
X721161Y624037D01*
X721719Y624100D01*
X722281Y624100D01*
X722281Y729100D02*
X722839Y729037D01*
X723386Y728912D01*
X723916Y728727D01*
X724422Y728483D01*
X724898Y728184D01*
X725337Y727834D01*
X725734Y727437D01*
X726084Y726998D01*
X726383Y726522D01*
X726627Y726016D01*
X726812Y725486D01*
X726937Y724939D01*
X727000Y724381D01*
X727000Y723819D01*
X726937Y723261D01*
X726812Y722714D01*
X726627Y722184D01*
X726383Y721678D01*
X726084Y721202D01*
X725734Y720763D01*
X725337Y720366D01*
X724898Y720016D01*
X724422Y719717D01*
X723916Y719473D01*
X723386Y719288D01*
X722839Y719163D01*
X722281Y719100D01*
X721719Y719100D01*
X721161Y719163D01*
X720614Y719288D01*
X720084Y719473D01*
X719578Y719717D01*
X719102Y720016D01*
X718663Y720366D01*
X718266Y720763D01*
X717916Y721202D01*
X717617Y721678D01*
X717373Y722184D01*
X717188Y722714D01*
X717063Y723261D01*
X717000Y723819D01*
X717000Y724381D01*
X717063Y724939D01*
X717188Y725486D01*
X717373Y726016D01*
X717617Y726522D01*
X717916Y726998D01*
X718266Y727437D01*
X718663Y727834D01*
X719102Y728184D01*
X719578Y728483D01*
X720084Y728727D01*
X720614Y728912D01*
X721161Y729037D01*
X721719Y729100D01*
X722281Y729100D01*
X595281Y329100D02*
X595839Y329037D01*
X596386Y328912D01*
X596916Y328727D01*
X597422Y328483D01*
X597898Y328184D01*
X598337Y327834D01*
X598734Y327437D01*
X599084Y326998D01*
X599383Y326522D01*
X599627Y326016D01*
X599812Y325486D01*
X599937Y324939D01*
X600000Y324381D01*
X600000Y323819D01*
X599937Y323261D01*
X599812Y322714D01*
X599627Y322184D01*
X599383Y321678D01*
X599084Y321202D01*
X598734Y320763D01*
X598337Y320366D01*
X597898Y320016D01*
X597422Y319717D01*
X596916Y319473D01*
X596386Y319288D01*
X595839Y319163D01*
X595281Y319100D01*
X594719Y319100D01*
X594161Y319163D01*
X593614Y319288D01*
X593084Y319473D01*
X592578Y319717D01*
X592102Y320016D01*
X591663Y320366D01*
X591266Y320763D01*
X590916Y321202D01*
X590617Y321678D01*
X590373Y322184D01*
X590188Y322714D01*
X590063Y323261D01*
X590000Y323819D01*
X590000Y324381D01*
X590063Y324939D01*
X590188Y325486D01*
X590373Y326016D01*
X590617Y326522D01*
X590916Y326998D01*
X591266Y327437D01*
X591663Y327834D01*
X592102Y328184D01*
X592578Y328483D01*
X593084Y328727D01*
X593614Y328912D01*
X594161Y329037D01*
X594719Y329100D01*
X595281Y329100D01*
X595281Y434100D02*
X595839Y434037D01*
X596386Y433912D01*
X596916Y433727D01*
X597422Y433483D01*
X597898Y433184D01*
X598337Y432834D01*
X598734Y432437D01*
X599084Y431998D01*
X599383Y431522D01*
X599627Y431016D01*
X599812Y430486D01*
X599937Y429939D01*
X600000Y429381D01*
X600000Y428819D01*
X599937Y428261D01*
X599812Y427714D01*
X599627Y427184D01*
X599383Y426678D01*
X599084Y426202D01*
X598734Y425763D01*
X598337Y425366D01*
X597898Y425016D01*
X597422Y424717D01*
X596916Y424473D01*
X596386Y424288D01*
X595839Y424163D01*
X595281Y424100D01*
X594719Y424100D01*
X594161Y424163D01*
X593614Y424288D01*
X593084Y424473D01*
X592578Y424717D01*
X592102Y425016D01*
X591663Y425366D01*
X591266Y425763D01*
X590916Y426202D01*
X590617Y426678D01*
X590373Y427184D01*
X590188Y427714D01*
X590063Y428261D01*
X590000Y428819D01*
X590000Y429381D01*
X590063Y429939D01*
X590188Y430486D01*
X590373Y431016D01*
X590617Y431522D01*
X590916Y431998D01*
X591266Y432437D01*
X591663Y432834D01*
X592102Y433184D01*
X592578Y433483D01*
X593084Y433727D01*
X593614Y433912D01*
X594161Y434037D01*
X594719Y434100D01*
X595281Y434100D01*
X595281Y624100D02*
X595839Y624037D01*
X596386Y623912D01*
X596916Y623727D01*
X597422Y623483D01*
X597898Y623184D01*
X598337Y622834D01*
X598734Y622437D01*
X599084Y621998D01*
X599383Y621522D01*
X599627Y621016D01*
X599812Y620486D01*
X599937Y619939D01*
X600000Y619381D01*
X600000Y618819D01*
X599937Y618261D01*
X599812Y617714D01*
X599627Y617184D01*
X599383Y616678D01*
X599084Y616202D01*
X598734Y615763D01*
X598337Y615366D01*
X597898Y615016D01*
X597422Y614717D01*
X596916Y614473D01*
X596386Y614288D01*
X595839Y614163D01*
X595281Y614100D01*
X594719Y614100D01*
X594161Y614163D01*
X593614Y614288D01*
X593084Y614473D01*
X592578Y614717D01*
X592102Y615016D01*
X591663Y615366D01*
X591266Y615763D01*
X590916Y616202D01*
X590617Y616678D01*
X590373Y617184D01*
X590188Y617714D01*
X590063Y618261D01*
X590000Y618819D01*
X590000Y619381D01*
X590063Y619939D01*
X590188Y620486D01*
X590373Y621016D01*
X590617Y621522D01*
X590916Y621998D01*
X591266Y622437D01*
X591663Y622834D01*
X592102Y623184D01*
X592578Y623483D01*
X593084Y623727D01*
X593614Y623912D01*
X594161Y624037D01*
X594719Y624100D01*
X595281Y624100D01*
X595281Y729100D02*
X595839Y729037D01*
X596386Y728912D01*
X596916Y728727D01*
X597422Y728483D01*
X597898Y728184D01*
X598337Y727834D01*
X598734Y727437D01*
X599084Y726998D01*
X599383Y726522D01*
X599627Y726016D01*
X599812Y725486D01*
X599937Y724939D01*
X600000Y724381D01*
X600000Y723819D01*
X599937Y723261D01*
X599812Y722714D01*
X599627Y722184D01*
X599383Y721678D01*
X599084Y721202D01*
X598734Y720763D01*
X598337Y720366D01*
X597898Y720016D01*
X597422Y719717D01*
X596916Y719473D01*
X596386Y719288D01*
X595839Y719163D01*
X595281Y719100D01*
X594719Y719100D01*
X594161Y719163D01*
X593614Y719288D01*
X593084Y719473D01*
X592578Y719717D01*
X592102Y720016D01*
X591663Y720366D01*
X591266Y720763D01*
X590916Y721202D01*
X590617Y721678D01*
X590373Y722184D01*
X590188Y722714D01*
X590063Y723261D01*
X590000Y723819D01*
X590000Y724381D01*
X590063Y724939D01*
X590188Y725486D01*
X590373Y726016D01*
X590617Y726522D01*
X590916Y726998D01*
X591266Y727437D01*
X591663Y727834D01*
X592102Y728184D01*
X592578Y728483D01*
X593084Y728727D01*
X593614Y728912D01*
X594161Y729037D01*
X594719Y729100D01*
X595281Y729100D01*
M02*
