G04 EAGLE Gerber RS-274X export*
G75*
%MOMM*%
%FSLAX34Y34*%
%LPD*%
%INSoldermask Bottom*%
%IPPOS*%
%AMOC8*
5,1,8,0,0,1.08239X$1,22.5*%
G01*
%ADD10C,2.743200*%
%ADD11P,2.969212X8X292.500000*%
%ADD12P,2.969212X8X112.500000*%
%ADD13P,2.969212X8X202.500000*%
%ADD14C,2.093200*%
%ADD15R,5.719200X5.719200*%
%ADD16C,5.719200*%
%ADD17P,1.649562X8X202.500000*%
%ADD18P,1.649562X8X22.500000*%
%ADD19C,1.203200*%
%ADD20R,4.013200X4.013200*%


D10*
X101600Y965200D03*
D11*
X101600Y914400D03*
D10*
X101600Y1092200D03*
D12*
X101600Y1143000D03*
D10*
X1193800Y254000D03*
D12*
X1193800Y304800D03*
D10*
X1104900Y279400D03*
D13*
X1054100Y279400D03*
D10*
X1562100Y279400D03*
D13*
X1511300Y279400D03*
D14*
X203200Y987500D03*
X203200Y1146100D03*
D15*
X-63500Y1018100D03*
D16*
X-63500Y1090100D03*
D17*
X1397000Y254000D03*
X1371600Y254000D03*
D18*
X1282700Y355600D03*
X1384300Y355600D03*
D19*
X468000Y324100D03*
X468000Y429100D03*
X468000Y619100D03*
X468000Y724100D03*
X341000Y324100D03*
X341000Y429100D03*
X341000Y619100D03*
X341000Y724100D03*
X214000Y324100D03*
X214000Y429100D03*
X214000Y619100D03*
X214000Y724100D03*
X87000Y324100D03*
X87000Y429100D03*
X87000Y619100D03*
X87000Y724100D03*
X-52700Y324100D03*
X-52700Y429100D03*
X-52700Y619100D03*
X-52700Y724100D03*
D20*
X1055100Y689600D03*
X1055100Y529600D03*
X1465100Y529600D03*
X1465100Y689600D03*
D19*
X476500Y992500D03*
X581500Y992500D03*
X771500Y992500D03*
X876500Y992500D03*
X476500Y1119500D03*
X581500Y1119500D03*
X771500Y1119500D03*
X876500Y1119500D03*
X476500Y865500D03*
X581500Y865500D03*
X771500Y865500D03*
X876500Y865500D03*
X849000Y324100D03*
X849000Y429100D03*
X849000Y619100D03*
X849000Y724100D03*
X722000Y324100D03*
X722000Y429100D03*
X722000Y619100D03*
X722000Y724100D03*
X595000Y324100D03*
X595000Y429100D03*
X595000Y619100D03*
X595000Y724100D03*
D20*
X1042400Y1134100D03*
X1042400Y974100D03*
X1452400Y974100D03*
X1452400Y1134100D03*
X1042400Y918200D03*
X1042400Y758200D03*
X1452400Y758200D03*
X1452400Y918200D03*
M02*
