G04 EAGLE Gerber RS-274X export*
G75*
%MOMM*%
%FSLAX34Y34*%
%LPD*%
%INSolderpaste Top*%
%IPPOS*%
%AMOC8*
5,1,8,0,0,1.08239X$1,22.5*%
G01*
%ADD10R,5.080000X2.540000*%
%ADD11R,2.540000X5.080000*%
%ADD12R,1.270000X0.635000*%
%ADD13R,0.635000X1.270000*%


D10*
X1562100Y749300D03*
X1562100Y647700D03*
X1562100Y1155700D03*
X1562100Y1054100D03*
X1562100Y952500D03*
X1562100Y850900D03*
D11*
X76200Y266700D03*
D10*
X1562100Y901700D03*
X1562100Y1003300D03*
X1562100Y1104900D03*
X1562100Y698500D03*
X1562100Y596900D03*
D11*
X177800Y266700D03*
X279400Y266700D03*
X381000Y266700D03*
X482600Y266700D03*
X584200Y266700D03*
X685800Y266700D03*
X787400Y266700D03*
D10*
X1562100Y800100D03*
D11*
X25400Y266700D03*
X127000Y266700D03*
X228600Y266700D03*
X330200Y266700D03*
X431800Y266700D03*
X533400Y266700D03*
X635000Y266700D03*
X736600Y266700D03*
D12*
X468000Y323100D03*
X468000Y430100D03*
X468000Y618100D03*
X468000Y725100D03*
X341000Y323100D03*
X341000Y430100D03*
X341000Y618100D03*
X341000Y725100D03*
X214000Y323100D03*
X214000Y430100D03*
X214000Y618100D03*
X214000Y725100D03*
X87000Y323100D03*
X87000Y430100D03*
X87000Y618100D03*
X87000Y725100D03*
X-52700Y323100D03*
X-52700Y430100D03*
X-52700Y618100D03*
X-52700Y725100D03*
D13*
X475500Y992500D03*
X582500Y992500D03*
X770500Y992500D03*
X877500Y992500D03*
X475500Y1119500D03*
X582500Y1119500D03*
X770500Y1119500D03*
X877500Y1119500D03*
X475500Y865500D03*
X582500Y865500D03*
X770500Y865500D03*
X877500Y865500D03*
D12*
X849000Y323100D03*
X849000Y430100D03*
X849000Y618100D03*
X849000Y725100D03*
X722000Y323100D03*
X722000Y430100D03*
X722000Y618100D03*
X722000Y725100D03*
X595000Y323100D03*
X595000Y430100D03*
X595000Y618100D03*
X595000Y725100D03*
M02*
