G04 EAGLE Gerber RS-274X export*
G75*
%MOMM*%
%FSLAX34Y34*%
%LPD*%
%INSoldermask Top*%
%IPPOS*%
%AMOC8*
5,1,8,0,0,1.08239X$1,22.5*%
G01*
%ADD10R,5.283200X2.743200*%
%ADD11C,2.743200*%
%ADD12P,2.969212X8X292.500000*%
%ADD13P,2.969212X8X112.500000*%
%ADD14P,2.969212X8X202.500000*%
%ADD15C,2.093200*%
%ADD16R,2.743200X5.283200*%
%ADD17R,5.719200X5.719200*%
%ADD18C,5.719200*%
%ADD19P,1.649562X8X202.500000*%
%ADD20P,1.649562X8X22.500000*%
%ADD21R,1.473200X0.838200*%
%ADD22C,1.203200*%
%ADD23R,4.013200X4.013200*%
%ADD24R,0.838200X1.473200*%


D10*
X1562100Y749300D03*
X1562100Y647700D03*
X1562100Y1155700D03*
X1562100Y1054100D03*
X1562100Y952500D03*
X1562100Y850900D03*
D11*
X101600Y965200D03*
D12*
X101600Y914400D03*
D11*
X101600Y1092200D03*
D13*
X101600Y1143000D03*
D11*
X1193800Y254000D03*
D13*
X1193800Y304800D03*
D11*
X1104900Y279400D03*
D14*
X1054100Y279400D03*
D11*
X1562100Y279400D03*
D14*
X1511300Y279400D03*
D15*
X203200Y987500D03*
X203200Y1146100D03*
D16*
X76200Y266700D03*
D10*
X1562100Y901700D03*
X1562100Y1003300D03*
X1562100Y1104900D03*
X1562100Y698500D03*
X1562100Y596900D03*
D16*
X177800Y266700D03*
X279400Y266700D03*
X381000Y266700D03*
X482600Y266700D03*
X584200Y266700D03*
X685800Y266700D03*
X787400Y266700D03*
D10*
X1562100Y800100D03*
D17*
X-63500Y1018100D03*
D18*
X-63500Y1090100D03*
D19*
X1397000Y254000D03*
X1371600Y254000D03*
D16*
X25400Y266700D03*
X127000Y266700D03*
X228600Y266700D03*
X330200Y266700D03*
X431800Y266700D03*
X533400Y266700D03*
X635000Y266700D03*
X736600Y266700D03*
D20*
X1282700Y355600D03*
X1384300Y355600D03*
D21*
X468000Y323100D03*
X468000Y430100D03*
X468000Y618100D03*
X468000Y725100D03*
D22*
X468000Y324100D03*
X468000Y429100D03*
X468000Y619100D03*
X468000Y724100D03*
D21*
X341000Y323100D03*
X341000Y430100D03*
X341000Y618100D03*
X341000Y725100D03*
D22*
X341000Y324100D03*
X341000Y429100D03*
X341000Y619100D03*
X341000Y724100D03*
D21*
X214000Y323100D03*
X214000Y430100D03*
X214000Y618100D03*
X214000Y725100D03*
D22*
X214000Y324100D03*
X214000Y429100D03*
X214000Y619100D03*
X214000Y724100D03*
D21*
X87000Y323100D03*
X87000Y430100D03*
X87000Y618100D03*
X87000Y725100D03*
D22*
X87000Y324100D03*
X87000Y429100D03*
X87000Y619100D03*
X87000Y724100D03*
D21*
X-52700Y323100D03*
X-52700Y430100D03*
X-52700Y618100D03*
X-52700Y725100D03*
D22*
X-52700Y324100D03*
X-52700Y429100D03*
X-52700Y619100D03*
X-52700Y724100D03*
D23*
X1055100Y689600D03*
X1055100Y529600D03*
X1465100Y529600D03*
X1465100Y689600D03*
D24*
X475500Y992500D03*
X582500Y992500D03*
X770500Y992500D03*
X877500Y992500D03*
D22*
X476500Y992500D03*
X581500Y992500D03*
X771500Y992500D03*
X876500Y992500D03*
D24*
X475500Y1119500D03*
X582500Y1119500D03*
X770500Y1119500D03*
X877500Y1119500D03*
D22*
X476500Y1119500D03*
X581500Y1119500D03*
X771500Y1119500D03*
X876500Y1119500D03*
D24*
X475500Y865500D03*
X582500Y865500D03*
X770500Y865500D03*
X877500Y865500D03*
D22*
X476500Y865500D03*
X581500Y865500D03*
X771500Y865500D03*
X876500Y865500D03*
D21*
X849000Y323100D03*
X849000Y430100D03*
X849000Y618100D03*
X849000Y725100D03*
D22*
X849000Y324100D03*
X849000Y429100D03*
X849000Y619100D03*
X849000Y724100D03*
D21*
X722000Y323100D03*
X722000Y430100D03*
X722000Y618100D03*
X722000Y725100D03*
D22*
X722000Y324100D03*
X722000Y429100D03*
X722000Y619100D03*
X722000Y724100D03*
D21*
X595000Y323100D03*
X595000Y430100D03*
X595000Y618100D03*
X595000Y725100D03*
D22*
X595000Y324100D03*
X595000Y429100D03*
X595000Y619100D03*
X595000Y724100D03*
D23*
X1042400Y1134100D03*
X1042400Y974100D03*
X1452400Y974100D03*
X1452400Y1134100D03*
X1042400Y918200D03*
X1042400Y758200D03*
X1452400Y758200D03*
X1452400Y918200D03*
M02*
